<svg width="1400" height="420" viewBox="0 0 1400 420" xmlns="http://www.w3.org/2000/svg" role="img" aria-labelledby="title description">
  <title id="title">scope-di Benchmarks</title>
  <desc id="description">scope-di Benchmarks package banner.</desc>

  <rect width="1400" height="420" rx="32" fill="#2D2D2D"/>
  <rect x="1" y="1" width="1398" height="418" rx="31" fill="none" stroke="#3A3A3A" stroke-width="2"/>
  <rect x="32" y="32" width="1336" height="356" rx="24" fill="#242424" opacity="0.72"/>

  <g transform="translate(174 58) scale(0.27636)">
    <circle cx="550" cy="550" r="540" fill="#191A1B" stroke="#000000" stroke-width="20"/>
    <path d="M 108.145 551 L 58.145 551 L 550 58.145 L 1041.855 551 L 991.855 551 L 550 108.145 Z M 8 550 L 108 550 L 550 975 L 992 550 L 1092 550 L 550 1075 Z" fill="#d8dee9"/>
    <path d="M 688 383 L 550 245 L 425 370 L 725 670 L 550 845" fill="none" stroke="#61afef" stroke-width="79.54875" stroke-linecap="square" stroke-linejoin="miter"/>
    <polygon points="203.75,555 316.25,555 578.125,816.875 521.875,873.125" fill="#61afef"/>
    <rect x="807.225625" y="502.225625" width="79.54875" height="79.54875" fill="#61afef" transform="rotate(45 847 542)"/>
  </g>

  <text x="842" y="200" text-anchor="middle" fill="#d8dee9" font-family="Inter, ui-sans-serif, system-ui, -apple-system, BlinkMacSystemFont, Segoe UI, sans-serif" font-size="88" font-weight="760" letter-spacing="0">scope-di</text>
  <text x="842" y="286" text-anchor="middle" fill="#9ca3af" font-family="Inter, ui-sans-serif, system-ui, -apple-system, BlinkMacSystemFont, Segoe UI, sans-serif" font-size="74" font-weight="720" letter-spacing="0">Benchmarks</text>
</svg>
